<svg xmlns="http://www.w3.org/2000/svg" width="40.9" height="52.8" viewBox="0 0 40.9 52.8"><g id="b62a4fe8-c5b8-478c-b53d-4fb4a7a8fec8" data-name="popcorn"><polygon points="31 52.3 9.6 52.3 2.3 21.2 38.3 21.2 31 52.3" fill="red"/><path d="M261.7,257.5a1.7,1.7,0,0,0,1.2-.5,2.1,2.1,0,0,0,.5-1.3,1.7,1.7,0,0,0-1.7-1.7,6.5,6.5,0,0,0-.4-2,6.6,6.6,0,0,0-1.2-1.7,4.6,4.6,0,0,0-1.6-1.1,5.2,5.2,0,0,0-4,0,4.8,4.8,0,0,0-2.8,2.8,5.2,5.2,0,0,0,0,4,5,5,0,0,0,1.1,1.7,7.1,7.1,0,0,0,1.7,1.1,6.5,6.5,0,0,0,2,.4,1.7,1.7,0,0,0,.5,1.2,1.7,1.7,0,0,0,2.4,0,1.4,1.4,0,0,0,.6-1.2l.7-.2.4-.4.3-.2.2-.3C261.6,257.9,261.7,257.7,261.7,257.5Z" transform="translate(-236.9 -219.1)" fill="#f8ffb3"/><polygon points="1.7 21.5 20.5 1.2 39.4 21.2 1.7 21.5" fill="#f8ffb3"/><rect x="2.3" y="21.8" width="36" height="3.07" fill="#fff"/></g><g id="f0dfdc26-39d3-48db-aee1-935d3a53dbe0" data-name="outline"><path d="M276.1,236.9a4.4,4.4,0,0,1,1.2,1.5,3.5,3.5,0,0,1,.5,2,4.3,4.3,0,0,1-.6,2.2,5.2,5.2,0,0,1-1.7,1.6c-1.2,4.6-2.3,9.2-3.5,13.8s-2.3,9.3-3.5,13.9H246.2c-1.2-4.6-2.3-9.3-3.5-13.9s-2.3-9.2-3.5-13.8a4.4,4.4,0,0,1-1.7-1.6,4.3,4.3,0,0,1-.6-2.2,3.3,3.3,0,0,1,.5-2,4.4,4.4,0,0,1,1.2-1.5,11.2,11.2,0,0,1,.5-1.3l.9-1.2,1.2-1a3.4,3.4,0,0,1,1.2-.6,6.1,6.1,0,0,0,.7-1l.7-.9a2.7,2.7,0,0,1,.8-.7,2.4,2.4,0,0,1,1.1-.6,5.8,5.8,0,0,1,.5-1.1l.8-.8.9-.7,1-.7a5.6,5.6,0,0,1,1.3-2.4,4.7,4.7,0,0,1,2.5-1.3l.9-1.4a5.5,5.5,0,0,1,1-1.1,5.7,5.7,0,0,1,1.3-.8,4.7,4.7,0,0,1,1.7-.2,5,5,0,0,1,1.7.2l1.4.8a6.4,6.4,0,0,1,1,1.3,6.9,6.9,0,0,1,.7,1.5,13.3,13.3,0,0,1,1.9,1.4,3.8,3.8,0,0,1,1.3,1.9l.9.4.6.4.5.6a3.5,3.5,0,0,1,.5.8l.2.3.4.5a.8.8,0,0,1,.2.4l.5.3.5.3.4.3.6.5.6.4.4.6a2,2,0,0,1,.4.8,3.5,3.5,0,0,1,1.4.6,3.1,3.1,0,0,1,1.1.9,3.2,3.2,0,0,1,.8,1.2A3.9,3.9,0,0,1,276.1,236.9Zm-33.6,1.2v.2a1.7,1.7,0,0,0-.5,1.2h30.7a1.9,1.9,0,0,0-.3-1,1.6,1.6,0,0,0,.3-.9,1.8,1.8,0,0,0-.4-1.1,1.5,1.5,0,0,0-1.1-.4,1.6,1.6,0,0,0-.9.3,1.7,1.7,0,0,0-1-.3,3.1,3.1,0,0,0-.2-.8,1.4,1.4,0,0,0,.2-.7,1.3,1.3,0,0,0-.4-1,1.5,1.5,0,0,0-1.1-.4c0-.2,0-.3-.1-.4h-.4c-.2,0-.3.1-.4.3a1.9,1.9,0,0,0-1-.3,1.3,1.3,0,0,0-.4-1c.3-.1.4-.2.4-.5l-.2-.3-.3-.2a1.8,1.8,0,0,0-.4-1,1.5,1.5,0,0,0-1.1-.4,1.3,1.3,0,0,1-1.4,0c0-.1-.1-.3-.1-.4v-.4a1.9,1.9,0,0,0,.2-.7,1.4,1.4,0,0,0-.5-1,1.3,1.3,0,0,0-1-.4.5.5,0,0,0-.2-.4h-.3c-.2,0-.4.1-.4.3a2.3,2.3,0,0,0-1.1-.3,1.8,1.8,0,0,1,0-2,1.3,1.3,0,0,0-.4-1,1.4,1.4,0,0,0-2,0,1.4,1.4,0,0,0-.5,1l-.3.2a.4.4,0,0,0-.1.3.5.5,0,0,0,.3.5,1.7,1.7,0,0,0-.3,1,2,2,0,0,0-1.1.3,1.4,1.4,0,0,0-.9-.3,1.2,1.2,0,0,0-1,.4,1.4,1.4,0,0,0-.5,1,4.3,4.3,0,0,0,.1.5,1.3,1.3,0,0,0,.3.5,1.3,1.3,0,0,0-.4,1,1.7,1.7,0,0,0-1,.3c0-.2-.2-.3-.4-.3h-.4c-.1.1-.1.2-.1.4a1.5,1.5,0,0,0-1.1.4,1.8,1.8,0,0,0-.4,1,1.4,1.4,0,0,0,.2.7,2.4,2.4,0,0,0-.2.8l-.7.2-.7-.2a1.4,1.4,0,0,0-1.1.4,1.5,1.5,0,0,0-.4,1.1h-.3l-.2.3a.5.5,0,0,0,.3.5,1.7,1.7,0,0,0-.3,1,1.7,1.7,0,0,0-1.2.5H244c0-.1-.1-.3-.2-.3l-.3-.2-.4.2c-.1,0-.1.2-.1.3h-.4a.6.6,0,0,0-.1.4h-.3a.5.5,0,0,0-.2.4l.2.3Zm23.4,30.4,6.8-27.3H242l6.8,27.3Zm-3.3-15.7a2.5,2.5,0,0,1,1.1,1.2,3,3,0,0,1,.5,1.6,3.7,3.7,0,0,1-.5,1.7,23,23,0,0,0-2.8,2.6,2.4,2.4,0,0,1-1.1,1.3,3.7,3.7,0,0,1-1.7.5,4.2,4.2,0,0,1-1.6-.4,3.4,3.4,0,0,1-1.2-1.2,6.6,6.6,0,0,1-1.9-.9,4.7,4.7,0,0,1-1.5-1.3,4.8,4.8,0,0,1-1-1.7,4.6,4.6,0,0,1-.4-2.1,5.9,5.9,0,0,1,.5-2.3,5.7,5.7,0,0,1,3.3-3.3,5.9,5.9,0,0,1,2.3-.5,7.1,7.1,0,0,1,2.1.4,5.9,5.9,0,0,1,1.7,1,4.7,4.7,0,0,1,1.3,1.5A6.6,6.6,0,0,1,262.6,252.8Zm-1.6,4.3a1.8,1.8,0,0,0,1.5-1.5,1.2,1.2,0,0,0-.5-1,1.4,1.4,0,0,0-1-.5,3.5,3.5,0,0,0-.4-1.7,4.2,4.2,0,0,0-.9-1.4,3.4,3.4,0,0,0-1.4-.9,4.7,4.7,0,0,0-1.7-.4,5.3,5.3,0,0,0-1.7.4,3.9,3.9,0,0,0-2.3,2.3,4,4,0,0,0,0,3.5,3.8,3.8,0,0,0,.9,1.3,7.1,7.1,0,0,0,1.4,1,4.7,4.7,0,0,0,1.7.3,1.5,1.5,0,0,0,.4,1,1.6,1.6,0,0,0,1.1.5,1.4,1.4,0,0,0,1-.5,1.2,1.2,0,0,0,.4-1h.7l.3-.4a.2.2,0,0,0,.2-.2.2.2,0,0,0,.2-.2A.9.9,0,0,0,261,257.1Z" transform="translate(-236.9 -219.1)"/></g></svg>